<svg xmlns="http://www.w3.org/2000/svg" width="295.293" height="234.605" viewBox="0 0 295.293 234.605"><g transform="translate(1359.183 -345.16) rotate(146)"><g transform="translate(1109.488 184.475)"><path d="M1339.5,294.148s-9.448,7.439-18.227,15.361-48.019,30.518-67.231,14.094c0,0,2.6-20.532,39.206-24.658s42.459-4.48,42.459-4.48" transform="translate(-1063.03 -149.227)" fill="none" stroke="#788b75" stroke-miterlimit="10" stroke-width="2.5"/><path d="M1255.6,323.221s27.86-12.477,43.335-15.563,34.964-12.44,34.964-12.44" transform="translate(-1062.528 -148.883)" fill="none" stroke="#788b75" stroke-miterlimit="10" stroke-width="2.5"/><path d="M1310.415,284.506s-19.472,5.8-25.759,14.5-43.241,52.815-93.751,36.706l2.752-3.105" transform="translate(-1083.321 -152.326)" fill="none" stroke="#788b75" stroke-miterlimit="10" stroke-width="2.5"/><path d="M1273.61,290.165s-9-4.464-16.681-4.408" transform="translate(-1062.102 -151.924)" fill="none" stroke="#788b75" stroke-miterlimit="10" stroke-width="2.5"/><path d="M1281.6,281.3s-19.119,30-42.4,39.665-38.887,10.115-45.807,11.23-7.883,2.454-7.883,2.454,1.842-12.422,5.077-16.2" transform="translate(-1085.058 -153.358)" fill="none" stroke="#788b75" stroke-miterlimit="10" stroke-width="2.5"/><path d="M1273.227,279.978s-38.85-6.159-58.211,5.835" transform="translate(-1075.572 -154.289)" fill="none" stroke="#788b75" stroke-miterlimit="10" stroke-width="2.5"/><path d="M1277.12,281.535s-25.311,11.77-39.036,20.195-39.968,14.428-50.457,28.247" transform="translate(-1084.375 -153.281)" fill="none" stroke="#788b75" stroke-miterlimit="10" stroke-width="2.5"/><path d="M1271.792,289.769s-11.438,2.435-20.718,5.411" transform="translate(-1063.984 -150.634)" fill="none" stroke="#788b75" stroke-miterlimit="10" stroke-width="2.5"/><path d="M1254.138,273.4a44.574,44.574,0,0,0-23.9,16.868c-9.914,13.725-42.611,60.4-83.245,37.674a125.146,125.146,0,0,1,21.964-14.189c11.791-5.745,36.155-19.731,46.664-27.932s20.847-11.939,32.992-11.826" transform="translate(-1097.434 -155.896)" fill="none" stroke="#788b75" stroke-miterlimit="10" stroke-width="2.5"/><path d="M1231.105,269.465s-11.047,1.189-26.038,12.775-52.372,36.542-85.939,11.787a137.264,137.264,0,0,1,28.994-9.112c16.627-3.273,26.912-5.521,40.19-11.212s31.337-7.418,40.3-5.019" transform="translate(-1106.39 -157.748)" fill="none" stroke="#788b75" stroke-miterlimit="10" stroke-width="2.5"/><path d="M1177.515,301.806s-22.876,4.872-35.559-2.252l7.122-3.515" transform="translate(-1099.053 -148.619)" fill="none" stroke="#788b75" stroke-miterlimit="10" stroke-width="0.625"/><path d="M1174.1,287.365s-20.16-.3-34.145-6.325-30.463-3.666-30.463-3.666,15.586-15.23,28.251-22.892,57.82-22.927,97.32,14.772" transform="translate(-1109.488 -165.069)" fill="none" stroke="#788b75" stroke-miterlimit="10" stroke-width="2.5"/><path d="M1112.837,271.05s20.31-9.781,32.881-8.851,37.717-6.377,56.705-2.34,31.931,7.273,31.931,7.273" transform="translate(-1108.411 -160.641)" fill="none" stroke="#788b75" stroke-miterlimit="10" stroke-width="2.5"/><path d="M1243.538,275.213s-21,12.85-32.864,23.636-46.9,28.266-59.867,28.583" transform="translate(-1096.208 -155.313)" fill="none" stroke="#788b75" stroke-miterlimit="10" stroke-width="2.5"/><path d="M1222.377,269.316s-23.227,8.181-41.846,15.619-49.413,12.7-58.9,8.9" transform="translate(-1105.585 -157.208)" fill="none" stroke="#788b75" stroke-miterlimit="10" stroke-width="2.5"/><path d="M1244.107,281.63s-3.328-5.969-15.621-14.338-37.045-20.645-50.3-36.844-42.048-18.657-42.048-18.657,30-8.386,51.664,6.754,28.991,27.563,38.253,37.309,15.956,23.749,25.812,29.85" transform="translate(-1100.924 -176.441)" fill="none" stroke="#788b75" stroke-miterlimit="10" stroke-width="2.5"/><path d="M1276.371,300.1s-17.611-19.343-27.654-26.6-29.03-29.628-36.784-42.87-17.405-40.079-23.71-46.16c0,0,18.5,4.705,39.22,26.8s43.907,57.693,52.814,89.087" transform="translate(-1084.183 -184.475)" fill="none" stroke="#788b75" stroke-miterlimit="10" stroke-width="2.5"/><path d="M1324.863,302.2s-28.529-6.344-48.334-28.29-28.731-40.618-28.731-40.618,25.293.95,43.63,19.287,33.156,38.723,36.559,48.821" transform="translate(-1065.036 -168.787)" fill="none" stroke="#788b75" stroke-miterlimit="10" stroke-width="2.5"/><path d="M1255.187,271.584s-34.869-23.658-45.488-39.987l6.38,1.041" transform="translate(-1077.281 -169.33)" fill="none" stroke="#788b75" stroke-miterlimit="10" stroke-width="2.5"/><path d="M1240.127,234.3s9.057,2.976,13.074,5.876" transform="translate(-1067.502 -168.461)" fill="none" stroke="#788b75" stroke-miterlimit="10" stroke-width="2.5"/><path d="M1257.31,268.685s18.058,7.441,30.017,6.4" transform="translate(-1061.979 -157.411)" fill="none" stroke="#788b75" stroke-miterlimit="10" stroke-width="2.5"/><path d="M1206.474,264.347s46.606,10.232,61.241,11.126" transform="translate(-1078.318 -158.805)" fill="none" stroke="#788b75" stroke-miterlimit="10" stroke-width="2.5"/><path d="M1206.784,267.654s51.793,9.4,62.58,12.093" transform="translate(-1078.218 -157.742)" fill="none" stroke="#788b75" stroke-miterlimit="10" stroke-width="2.5"/><path d="M1260.983,274.808s33.421,7.328,43.872,9.784" transform="translate(-1060.799 -155.443)" fill="none" stroke="#788b75" stroke-miterlimit="10" stroke-width="2.5"/><path d="M1260.167,278.073s86.311,18.025,103.029,24.5l.893-5.468s-33.7-9.059-40.115-12.166" transform="translate(-1061.061 -154.393)" fill="none" stroke="#788b75" stroke-miterlimit="10" stroke-width="2.5"/><path d="M1251.57,234.47s16.774,14.153,27.132,25.2,42.382,37.234,42.382,37.234" transform="translate(-1063.824 -168.407)" fill="none" stroke="#788b75" stroke-miterlimit="10" stroke-width="2.5"/><path d="M1191.729,188.162c11.082,10.044,30.684,34.389,42.158,52.355s41.654,56.577,41.654,56.577" transform="translate(-1083.057 -183.29)" fill="none" stroke="#788b75" stroke-miterlimit="10" stroke-width="2.5"/><path d="M1150.686,214.029s26.166,8.2,37.586,18.488,27.895,26.261,35.5,31.246" transform="translate(-1096.247 -174.977)" fill="none" stroke="#788b75" stroke-miterlimit="10" stroke-width="2.5"/></g><g transform="translate(1210.851 270.717)"><path d="M1214.951,260.555c-4.686-3.385.6-10.709,5.289-7.323C1225.6,257.1,1220.307,264.423,1214.951,260.555Z" transform="translate(-1177.542 -248.899)" fill="#494d54"/><path d="M1195.627,257.4a4.237,4.237,0,1,1,5.914-.954A4.276,4.276,0,0,1,1195.627,257.4Z" transform="translate(-1183.727 -249.741)" fill="#494d54"/><path d="M1210.584,262.015a3.848,3.848,0,0,1-6.014-4.342,5.7,5.7,0,0,1,1.518-2.154,3.879,3.879,0,0,1,6.063,4.379A5.7,5.7,0,0,1,1210.584,262.015Z" transform="translate(-1180.378 -248.157)" fill="#494d54"/><path d="M1265.657,269.418a.83.83,0,0,0-.137.126,3.914,3.914,0,0,1-2.957.883,3.993,3.993,0,0,1-2.8-1.512,11.746,11.746,0,0,1-.665-1.1,4.2,4.2,0,0,1,.443-4.213,4.256,4.256,0,1,1,6.114,5.811Z" transform="translate(-1162.891 -245.851)" fill="#494d54"/><path d="M1266.71,273.2c-4.667-3.371.562-10.609,5.23-7.239S1271.379,276.572,1266.71,273.2Z" transform="translate(-1160.907 -244.809)" fill="#494d54"/><path d="M1246.4,267.695a3.6,3.6,0,0,1-5.034-.551,2.119,2.119,0,0,0-.225-.26,3.406,3.406,0,0,1-.928-1.83,3.537,3.537,0,0,1,2.928-4.053,3.727,3.727,0,0,1,2.634.625,3.967,3.967,0,0,1,1.176,1.035A3.634,3.634,0,0,1,1246.4,267.695Z" transform="translate(-1168.852 -246.136)" fill="#494d54"/><path d="M1246.94,272.223c-3.589-2.593.431-8.158,4.02-5.566S1250.527,274.816,1246.94,272.223Z" transform="translate(-1167.126 -244.52)" fill="#494d54"/><path d="M1254.148,280.6c-3.967-2.865.476-9.016,4.443-6.151S1258.115,283.465,1254.148,280.6Z" transform="translate(-1164.857 -242.039)" fill="#494d54"/><path d="M1253.967,274.559a4,4,0,1,1,5.585-.9A4.035,4.035,0,0,1,1253.967,274.559Z" transform="translate(-1164.945 -244.089)" fill="#494d54"/><path d="M1270.4,288.54a3.846,3.846,0,1,1,5.369-.864A3.882,3.882,0,0,1,1270.4,288.54Z" transform="translate(-1159.643 -239.505)" fill="#494d54"/><path d="M1265.687,285.128a3.307,3.307,0,0,1-3.618-.667,1.885,1.885,0,0,1-.259-.185,11.531,11.531,0,0,1-.909-.9,3.486,3.486,0,0,1,3.935-5.448c.1.046.194.094.289.144a2.214,2.214,0,0,1,.924.526,3.519,3.519,0,0,1,1.167,1.442,4.262,4.262,0,0,1,.424,2.384A3.362,3.362,0,0,1,1265.687,285.128Z" transform="translate(-1162.435 -240.762)" fill="#494d54"/><path d="M1275.978,299.26c-3.348-2.417.914-8.317,4.26-5.9A3.639,3.639,0,1,1,1275.978,299.26Z" transform="translate(-1157.734 -235.905)" fill="#494d54"/><path d="M1275.907,292.81c-3.318-2.4.4-7.544,3.718-5.147S1279.226,295.207,1275.907,292.81Z" transform="translate(-1157.782 -237.753)" fill="#494d54"/><path d="M1265.8,279.831a3.265,3.265,0,0,1-3.5-1.9,4.343,4.343,0,0,1-.338-2.08,3.279,3.279,0,0,1,6.262-1.008,4.436,4.436,0,0,1,.313,1.06,4.049,4.049,0,0,1-.2,1.847A3.2,3.2,0,0,1,1265.8,279.831Z" transform="translate(-1161.852 -242.301)" fill="#494d54"/><path d="M1193.586,283.485c-4.263-3.08.514-9.691,4.777-6.612S1197.85,286.564,1193.586,283.485Z" transform="translate(-1184.358 -241.277)" fill="#494d54"/><path d="M1199.221,275.545a3.267,3.267,0,0,1-3.761-3.771l-.011.044c0-.024.011-.046.015-.07a4.429,4.429,0,0,1,.136-.616,1.308,1.308,0,0,0,.048-.173c-.012.052-.024.1-.037.157a3.186,3.186,0,0,1,1.307-1.87,3.382,3.382,0,0,1,5.209,1.269,3.689,3.689,0,0,1-2.906,5.031Z" transform="translate(-1183.233 -243.711)" fill="#494d54"/><path d="M1187.7,276.644c-4.017-2.9.85-9.637,4.867-6.735A4.158,4.158,0,1,1,1187.7,276.644Z" transform="translate(-1186.197 -243.488)" fill="#494d54"/><path d="M1202.851,269.855l.068-.02a.788.788,0,0,0-.1.036,5.48,5.48,0,0,1-.728.215l-.008,0a4,4,0,0,1-1.317.116l-.077-.017a4.224,4.224,0,0,1-1.237-.279,4.1,4.1,0,0,1-2.54-3.1,4,4,0,0,1,1.436-3.74,4.419,4.419,0,0,1,4.222-.7,4.145,4.145,0,0,1,2.64,3.391,3.912,3.912,0,0,1-.666,2.807A3.632,3.632,0,0,1,1202.851,269.855Z" transform="translate(-1182.769 -245.764)" fill="#494d54"/><path d="M1190.317,263.043c-3.348-2.417.762-8.108,4.11-5.69A3.515,3.515,0,1,1,1190.317,263.043Z" transform="translate(-1185.273 -247.483)" fill="#494d54"/><path d="M1211.132,278.518l.063-.018c-.062.022-.121.048-.182.071l-.038.015c-.081.033-.164.065-.247.1a3.341,3.341,0,0,1-4.617-3.235c.009-.167-.111-.333-.111-.5v.008a3.479,3.479,0,0,1,1.453-2.556,3.724,3.724,0,0,1,4.416-.111,3.648,3.648,0,0,1,1.505,3.256A3.545,3.545,0,0,1,1211.132,278.518Z" transform="translate(-1179.833 -242.711)" fill="#494d54"/><path d="M1218.412,267.895a1.883,1.883,0,0,1-.831.5,3.743,3.743,0,1,1,1.406-5.765,3.747,3.747,0,0,1,.59,3.648A3.784,3.784,0,0,1,1218.412,267.895Z" transform="translate(-1177.8 -246.047)" fill="#494d54"/><path d="M1218.571,278.69c-4.017-2.9.669-9.386,4.684-6.485A4.013,4.013,0,1,1,1218.571,278.69Z" transform="translate(-1176.286 -242.756)" fill="#494d54"/><path d="M1217.613,287.462c-4.049-2.923.485-9.2,4.532-6.277S1221.66,290.386,1217.613,287.462Z" transform="translate(-1176.609 -239.878)" fill="#494d54"/><path d="M1224.987,284.44c-3.536-2.553.424-8.034,3.959-5.481S1228.521,286.993,1224.987,284.44Z" transform="translate(-1174.175 -240.563)" fill="#494d54"/><path d="M1227.506,275.735c-3.751-2.71.449-8.526,4.2-5.817S1231.257,278.444,1227.506,275.735Z" transform="translate(-1173.392 -243.482)" fill="#494d54"/><path d="M1224.091,269.1c-4.427-3.2.53-10.058,4.955-6.862S1228.514,272.293,1224.091,269.1Z" transform="translate(-1174.575 -245.992)" fill="#494d54"/></g></g></svg>