<svg xmlns="http://www.w3.org/2000/svg" width="33.726" height="34" viewBox="0 0 33.726 34">
  <g id="Grupo_63" data-name="Grupo 63" transform="translate(-0.744)">
    <path id="Caminho_691" data-name="Caminho 691" d="M17.587,13.879a3.1,3.1,0,1,0,3.076,3.1A3.092,3.092,0,0,0,17.587,13.879Zm0,5.081a1.984,1.984,0,1,1,1.971-1.984A1.987,1.987,0,0,1,17.587,18.96Z" fill="#fff"/>
    <path id="Caminho_692" data-name="Caminho 692" d="M20.783,14.508a.7.7,0,1,0-.7-.7A.7.7,0,0,0,20.783,14.508Z" fill="#fff"/>
    <path id="Caminho_693" data-name="Caminho 693" d="M22.585,11.992A3.407,3.407,0,0,0,20.063,11h-4.95a3.3,3.3,0,0,0-3.484,3.508v4.96A3.349,3.349,0,0,0,15.137,23h4.9a3.531,3.531,0,0,0,2.523-.944,3.475,3.475,0,0,0,.985-2.564V14.508A3.48,3.48,0,0,0,22.585,11.992Zm-.1,7.5a2.37,2.37,0,0,1-.7,1.766,2.474,2.474,0,0,1-1.754.629h-4.9a2.474,2.474,0,0,1-1.754-.629,2.438,2.438,0,0,1-.649-1.79v-4.96a2.418,2.418,0,0,1,.649-1.766,2.434,2.434,0,0,1,1.754-.629h4.95a2.386,2.386,0,0,1,1.753.653,2.5,2.5,0,0,1,.649,1.742Z" fill="#fff"/>
    <path id="Caminho_694" data-name="Caminho 694" d="M33.97,17A16.364,16.364,0,1,1,17.607.5,16.432,16.432,0,0,1,33.97,17Z" fill="none" stroke="#fff" stroke-width="1"/>
  </g>
</svg>
