<svg xmlns="http://www.w3.org/2000/svg" viewBox="0 0 188.45 37.23"><defs><style>.cls-1{fill:#7a936d;}</style></defs><title>logo-sta-grasse</title><g id="Camada_2" data-name="Camada 2"><g id="Layer_1" data-name="Layer 1"><path class="cls-1" d="M76.3,9.07A7.2,7.2,0,0,0,71.54,7.2c-4,0-6.45,3.05-6.45,6.9,0,3.07,1.8,6.26,6.45,6.26a6.24,6.24,0,0,0,4.23-1.5V15.54H71V12.39h8v7.89a9.32,9.32,0,0,1-7.46,3.37c-7,0-9.9-4.63-9.9-9.55C61.64,8.83,64.93,4,71.54,4a9.87,9.87,0,0,1,6.95,2.86Z"/><path class="cls-1" d="M102,23.22h-4.2L92.33,17h-3.4v6.26H85.4V4.47l8.91,0c4.41,0,6.74,3,6.74,6.2a5.57,5.57,0,0,1-4.74,5.89L102,23ZM88.93,7.79v6h5.38a2.92,2.92,0,0,0,3.21-3,2.93,2.93,0,0,0-3.21-3Z"/><path class="cls-1" d="M120.48,19.69h-9.79l-1.61,3.53h-3.83l8.4-18.72h3.86l8.39,18.72h-3.85Zm-4.9-11.26-3.48,8h7Z"/><path class="cls-1" d="M142.52,9a5.37,5.37,0,0,0-4.44-2.09c-2.62,0-3.88,1.1-3.88,2.49,0,1.63,1.93,2.08,4.18,2.35,3.9.48,7.54,1.5,7.54,6,0,4.17-3.69,6-7.87,6-3.82,0-6.76-1.18-8.15-4.6l2.94-1.52c.83,2.05,3,3,5.27,3s4.31-.77,4.31-2.8c0-1.77-1.85-2.49-4.34-2.76-3.82-.45-7.35-1.47-7.35-5.67,0-3.85,3.79-5.43,7.24-5.46,2.92,0,5.94.83,7.36,3.72Z"/><path class="cls-1" d="M164,9a5.35,5.35,0,0,0-4.44-2.09c-2.62,0-3.88,1.1-3.88,2.49,0,1.63,1.93,2.08,4.18,2.35,3.9.48,7.54,1.5,7.54,6,0,4.17-3.69,6-7.86,6-3.83,0-6.77-1.18-8.16-4.6l2.94-1.52c.83,2.05,3,3,5.27,3s4.31-.77,4.31-2.8c0-1.77-1.85-2.49-4.34-2.76-3.82-.45-7.35-1.47-7.35-5.67,0-3.85,3.8-5.43,7.25-5.46,2.91,0,5.93.83,7.35,3.72Z"/><path class="cls-1" d="M187.79,23.22h-14V4.5h14V7.92H177.28v4.31h10.14v3.29H177.28v4.22h10.51Z"/><path class="cls-1" d="M46.73,5.91a1.68,1.68,0,0,0-1.39-.66c-.82,0-1.22.35-1.22.78s.61.66,1.31.74c1.22.15,2.36.47,2.36,1.87s-1.15,1.87-2.46,1.87a2.45,2.45,0,0,1-2.56-1.44l.93-.48a1.66,1.66,0,0,0,1.65.93c.69,0,1.34-.24,1.34-.88s-.57-.78-1.35-.86C44.14,7.63,43,7.31,43,6s1.19-1.7,2.27-1.71a2.37,2.37,0,0,1,2.31,1.17Z"/><path class="cls-1" d="M50.16,5.5H48.3v-1h4.83v1H51.27v4.86H50.16Z"/><path class="cls-1" d="M58,9.25H54.89l-.5,1.11h-1.2l2.63-5.87H57l2.63,5.87H58.45ZM56.43,5.72l-1.09,2.5h2.18Z"/><path class="cls-1" d="M29.33,4.87A1,1,0,1,0,28,6.49,16,16,0,0,1,19.14,35V28.19c6.07-.8,8.91-4.29,10.23-7.12a15.07,15.07,0,0,0,1.39-6.18,1,1,0,0,0-1-1,15.63,15.63,0,0,0-5.67,1C22.85,10.47,20.76,8,18.3,8h0c-2.45,0-4.55,2.51-5.81,6.93a15.78,15.78,0,0,0-5.65-.94,1,1,0,0,0-1,1,14.88,14.88,0,0,0,1.39,6.18c1.3,2.79,4.08,6.21,10,7.08V35A16,16,0,0,1,8.5,6.19,1,1,0,1,0,7.25,4.53,18.08,18.08,0,1,0,36.15,19,18,18,0,0,0,29.33,4.87Zm-.56,11a13.14,13.14,0,0,1-1.16,4.34,10.32,10.32,0,0,1-8.23,5.95,10.77,10.77,0,0,1,2.19-7.26C23.16,17.1,25.58,16.08,28.77,15.91ZM17.24,26.2c-7.85-1.29-9.18-7.79-9.4-10.29A12.12,12.12,0,0,1,12.53,17a.87.87,0,0,0,.27.14A7.83,7.83,0,0,1,15,18.94,10.84,10.84,0,0,1,17.24,26.2Zm-.72-8.51a9.38,9.38,0,0,0-2.27-1.94c.76-2.8,2.23-5.86,4-5.86h0c1.51,0,3.08,2.29,4.05,5.87a9.52,9.52,0,0,0-2.26,1.93,10.29,10.29,0,0,0-1.78,3A10.11,10.11,0,0,0,16.52,17.69Zm2-11c3.87,0,8-1,8-3.35S22.36,0,18.49,0s-8,1.05-8,3.35S14.61,6.7,18.49,6.7Zm0-4.76c3.77,0,5.81,1,6.08,1.41-.27.44-2.31,1.42-6.08,1.42s-5.82-1-6.09-1.42C12.67,2.92,14.71,1.94,18.49,1.94Z"/><path class="cls-1" d="M152.85,36.43h-1.94l-.32.7h-.76l1.67-3.72h.76l1.67,3.72h-.77Zm-1-2.24-.69,1.59h1.38Z"/><path class="cls-1" d="M160.52,37.13h-.83l-1.08-1.24h-.68v1.24h-.7V33.41H159a1.24,1.24,0,0,1,1.34,1.23,1.11,1.11,0,0,1-.94,1.17l1.12,1.27Zm-2.59-3.06v1.19H159a.59.59,0,0,0,.64-.6.58.58,0,0,0-.64-.59Z"/><path class="cls-1" d="M167.44,35.29a1.82,1.82,0,0,1-1.9,1.92,1.8,1.8,0,0,1-1.91-1.91,1.91,1.91,0,1,1,3.81,0Zm-3.12,0a1.22,1.22,0,1,0,2.43,0,1.22,1.22,0,1,0-2.43,0Z"/><path class="cls-1" d="M174.18,34.44,173,36.05h-.14l-1.18-1.62v2.7H171V33.42h.8l1.17,1.6,1.16-1.6h.8v3.71h-.7Z"/><path class="cls-1" d="M181.16,36.43h-1.94l-.32.7h-.76l1.67-3.72h.76l1.67,3.72h-.77Zm-1-2.24-.69,1.59h1.38Z"/><path class="cls-1" d="M187.77,34.31a1,1,0,0,0-.88-.41c-.52,0-.77.21-.77.49s.39.41.83.47c.78.09,1.5.29,1.5,1.18s-.73,1.19-1.56,1.19a1.54,1.54,0,0,1-1.62-.92l.58-.3a1.07,1.07,0,0,0,1.05.59c.44,0,.85-.15.85-.56s-.36-.49-.86-.55c-.76-.09-1.46-.29-1.46-1.12s.76-1.08,1.44-1.08a1.5,1.5,0,0,1,1.46.73Z"/></g></g></svg>