<svg xmlns="http://www.w3.org/2000/svg" width="253.116" height="50" viewBox="0 0 253.116 50"><g transform="translate(-479 -103.682)"><g transform="translate(479 103.682)"><g transform="translate(82.796 5.175)"><path d="M113.061,64.04a9.644,9.644,0,0,0-6.4-2.514c-5.389,0-8.658,4.1-8.658,9.269,0,4.132,2.407,8.405,8.658,8.405a8.363,8.363,0,0,0,5.677-2.011V72.734h-6.431V68.5h10.777v10.6a12.523,12.523,0,0,1-10.024,4.528c-9.449,0-13.293-6.215-13.293-12.826,0-7.077,4.419-13.617,13.293-13.617a13.283,13.283,0,0,1,9.342,3.844Z" transform="translate(-93.372 -57.034)" fill="#fff"/><path d="M139.406,82.871h-5.64l-7.33-8.407h-4.563v8.407h-4.743V57.686c3.988,0,7.976.036,11.963.036,5.929.036,9.054,3.988,9.054,8.336,0,3.449-1.581,6.933-6.36,7.9l7.617,8.587Zm-17.532-20.73v8.048h7.221c3.018,0,4.311-2.012,4.311-4.024a3.942,3.942,0,0,0-4.311-4.024Z" transform="translate(-85.219 -56.86)" fill="#fff"/><path d="M157.428,78.119H144.279l-2.156,4.743h-5.139l11.281-25.149h5.174L164.72,82.862h-5.172Zm-6.575-15.125L146.182,73.7h9.342Z" transform="translate(-78.407 -56.851)" fill="#fff"/><path d="M178.583,64.006c-.862-1.437-3.233-2.8-5.964-2.8-3.52,0-5.209,1.473-5.209,3.342,0,2.192,2.586,2.8,5.6,3.162,5.246.646,10.131,2.012,10.131,8.012,0,5.6-4.958,8.011-10.563,8.011-5.138,0-9.089-1.581-10.957-6.178l3.952-2.048c1.113,2.767,4.024,3.988,7.078,3.988,2.982,0,5.785-1.041,5.785-3.772,0-2.372-2.479-3.342-5.821-3.7-5.138-.61-9.88-1.976-9.88-7.616,0-5.174,5.1-7.293,9.736-7.33,3.917,0,7.976,1.115,9.88,4.994Z" transform="translate(-69.951 -57.071)" fill="#fff"/><path d="M200.015,64.006c-.862-1.437-3.234-2.8-5.964-2.8-3.52,0-5.21,1.473-5.21,3.342,0,2.192,2.587,2.8,5.6,3.162,5.245.646,10.131,2.012,10.131,8.012,0,5.6-4.958,8.011-10.563,8.011-5.138,0-9.089-1.581-10.957-6.178L187.01,75.5c1.113,2.767,4.024,3.988,7.078,3.988,2.982,0,5.784-1.041,5.784-3.772,0-2.372-2.479-3.342-5.82-3.7-5.139-.61-9.88-1.976-9.88-7.616,0-5.174,5.1-7.293,9.736-7.33,3.915,0,7.976,1.115,9.88,4.994Z" transform="translate(-62.597 -57.071)" fill="#fff"/><path d="M224.331,82.862H205.505V57.713h18.826v4.6H210.211V68.1h13.617v4.419H210.211v5.675h14.119Z" transform="translate(-54.894 -56.851)" fill="#fff"/></g><g transform="translate(57.452 5.763)"><path d="M79.814,59.681a2.258,2.258,0,0,0-1.868-.878c-1.1,0-1.631.462-1.631,1.046,0,.686.81.878,1.755.99,1.643.2,3.173.631,3.173,2.51,0,1.754-1.553,2.509-3.308,2.509-1.609,0-2.846-.5-3.432-1.935l1.238-.642a2.244,2.244,0,0,0,2.216,1.249c.933,0,1.812-.326,1.812-1.181,0-.743-.776-1.048-1.824-1.159-1.608-.192-3.093-.619-3.093-2.385,0-1.621,1.6-2.285,3.049-2.3A3.185,3.185,0,0,1,81,59.074Z" transform="translate(-74.503 -57.509)" fill="#fff"/><path d="M82.529,59.06h-2.5V57.71h6.481v1.35h-2.5v6.526H82.529Z" transform="translate(-72.606 -57.44)" fill="#fff"/><path d="M91.323,64.1H87.207l-.676,1.486H84.922l3.532-7.876h1.621l3.532,7.876h-1.62Zm-2.058-4.736L87.8,62.717h2.927Z" transform="translate(-70.928 -57.44)" fill="#fff"/></g><path d="M71.121,59.754a1.392,1.392,0,0,0-1.734,2.179A21.492,21.492,0,0,1,57.438,100.2V91.087c8.148-1.076,11.966-5.763,13.74-9.567a20.252,20.252,0,0,0,1.866-8.306,1.3,1.3,0,0,0-1.3-1.267,21.053,21.053,0,0,0-7.618,1.268c-1.7-5.937-4.513-9.313-7.813-9.32H56.3c-3.3,0-6.113,3.375-7.816,9.308A21.124,21.124,0,0,0,40.9,71.947a1.3,1.3,0,0,0-1.3,1.267,20.292,20.292,0,0,0,1.867,8.306c1.746,3.746,5.479,8.346,13.372,9.514v9.188A21.5,21.5,0,0,1,43.142,61.537a1.392,1.392,0,1,0-1.668-2.228,24.279,24.279,0,1,0,29.647.445Zm-.744,14.834a18.065,18.065,0,0,1-1.558,5.832c-2.074,4.446-5.792,7.129-11.064,7.989-.073-2.138.171-6.53,2.948-9.754C62.831,76.187,66.08,74.821,70.377,74.587ZM54.886,88.408c-10.545-1.733-12.335-10.46-12.631-13.821a16.256,16.256,0,0,1,6.3,1.49,1.264,1.264,0,0,0,.364.188,10.406,10.406,0,0,1,3.015,2.389C54.716,81.877,54.959,86.269,54.886,88.408Zm-.962-11.437a12.89,12.89,0,0,0-3.062-2.6c1.029-3.758,3-7.872,5.44-7.872h0c2.036,0,4.137,3.08,5.44,7.892a12.939,12.939,0,0,0-3.03,2.58,13.873,13.873,0,0,0-2.395,4.056A13.878,13.878,0,0,0,53.925,76.972Zm2.634-14.748c5.2,0,10.8-1.409,10.8-4.5s-5.6-4.5-10.8-4.5-10.795,1.409-10.795,4.5S51.359,62.224,56.558,62.224Zm0-6.4c5.069,0,7.816,1.314,8.173,1.9-.357.586-3.1,1.9-8.173,1.9s-7.816-1.314-8.173-1.9C48.743,57.136,51.489,55.822,56.558,55.822Z" transform="translate(-31.729 -53.218)" fill="#fff"/><g transform="translate(201.245 44.707)"><path d="M185.618,90.682h-2.61l-.428.942H181.56l2.239-4.992h1.028l2.239,4.992h-1.027Zm-1.306-3-.927,2.125h1.854Z" transform="translate(-181.56 -86.459)" fill="#fff"/><path d="M193.381,91.626h-1.119l-1.456-1.668H189.9v1.668h-.942v-5c.792,0,1.584.008,2.376.008a1.654,1.654,0,0,1,1.8,1.655,1.479,1.479,0,0,1-1.263,1.567l1.511,1.706ZM189.9,87.51v1.6h1.434a.8.8,0,1,0,0-1.6Z" transform="translate(-179.021 -86.461)" fill="#fff"/><path d="M200.483,89.182a2.564,2.564,0,1,1-5.128.007,2.565,2.565,0,1,1,5.128-.007Zm-4.2.021a1.638,1.638,0,1,0,3.273-.008,1.643,1.643,0,1,0-3.273.008Z" transform="translate(-176.826 -86.484)" fill="#fff"/><path d="M207.019,88l-1.627,2.169h-.185L203.617,88v3.629h-.942V86.636h1.084l1.562,2.148,1.562-2.148h1.077v4.992h-.942Z" transform="translate(-174.314 -86.457)" fill="#fff"/><path d="M213.927,90.682h-2.611l-.427.942h-1.019l2.239-4.992h1.027l2.239,4.992h-1.027Zm-1.306-3-.927,2.125h1.854Z" transform="translate(-171.846 -86.459)" fill="#fff"/><path d="M220.364,87.881a1.428,1.428,0,0,0-1.183-.557c-.7,0-1.034.291-1.034.664,0,.435.513.556,1.112.627,1.042.129,2.012.4,2.012,1.59,0,1.113-.985,1.592-2.1,1.592A2.073,2.073,0,0,1,217,90.569l.784-.406a1.425,1.425,0,0,0,1.4.791c.592,0,1.148-.207,1.148-.749,0-.471-.492-.662-1.155-.735-1.021-.121-1.961-.392-1.961-1.511,0-1.029,1.013-1.448,1.933-1.456a2.019,2.019,0,0,1,1.961.991Z" transform="translate(-169.4 -86.503)" fill="#fff"/></g></g></g></svg>