<svg 
 xmlns="http://www.w3.org/2000/svg"
 xmlns:xlink="http://www.w3.org/1999/xlink"
 width="15px" height="15px">
<path fill-rule="evenodd"  fill="rgb(90, 52, 14)"
 d="M9.283,7.500 L14.630,2.152 C15.123,1.660 15.123,0.862 14.630,0.370 C14.138,-0.122 13.340,-0.122 12.848,0.370 L7.500,5.718 L2.152,0.370 C1.660,-0.123 0.862,-0.123 0.370,0.370 C-0.123,0.862 -0.123,1.660 0.370,2.152 L5.717,7.500 L0.370,12.848 C-0.123,13.340 -0.123,14.138 0.370,14.630 C0.862,15.123 1.660,15.123 2.152,14.630 L7.500,9.283 L12.848,14.630 C13.340,15.123 14.138,15.123 14.630,14.630 C15.123,14.138 15.123,13.340 14.630,12.848 L9.283,7.500 Z"/>
</svg>