<svg 
 xmlns="http://www.w3.org/2000/svg"
 xmlns:xlink="http://www.w3.org/1999/xlink"
 width="90px" height="90px">
<path fill-rule="evenodd"  fill="rgb(255, 255, 255)"
 d="M90.000,43.841 C90.000,68.054 70.221,87.682 45.818,87.682 C38.072,87.682 30.793,85.701 24.461,82.227 L0.000,90.000 L7.975,66.478 C3.952,59.871 1.635,52.123 1.635,43.841 C1.635,19.628 21.416,0.000 45.818,0.000 C70.223,0.000 90.000,19.628 90.000,43.841 ZM45.818,6.982 C25.334,6.982 8.672,23.517 8.672,43.841 C8.672,51.906 11.301,59.375 15.748,65.451 L11.107,79.140 L25.382,74.603 C31.247,78.453 38.273,80.699 45.818,80.699 C66.300,80.699 82.964,64.166 82.964,43.842 C82.964,23.518 66.301,6.982 45.818,6.982 ZM68.129,53.938 C67.856,53.490 67.135,53.221 66.053,52.684 C64.969,52.147 59.643,49.546 58.652,49.189 C57.659,48.830 56.936,48.650 56.214,49.726 C55.493,50.802 53.417,53.221 52.784,53.938 C52.152,54.656 51.521,54.746 50.438,54.208 C49.356,53.671 45.866,52.535 41.729,48.875 C38.510,46.027 36.336,42.511 35.704,41.434 C35.073,40.359 35.638,39.778 36.179,39.243 C36.667,38.761 37.263,37.988 37.804,37.361 C38.347,36.733 38.527,36.286 38.886,35.568 C39.249,34.851 39.068,34.224 38.796,33.685 C38.526,33.148 36.358,27.860 35.456,25.708 C34.554,23.558 33.653,23.916 33.020,23.916 C32.389,23.916 31.666,23.826 30.944,23.826 C30.222,23.826 29.048,24.095 28.055,25.170 C27.063,26.246 24.266,28.846 24.266,34.133 C24.266,39.421 28.145,44.530 28.688,45.246 C29.229,45.962 36.178,57.166 47.187,61.469 C58.200,65.771 58.200,64.336 60.186,64.156 C62.170,63.978 66.592,61.558 67.497,59.049 C68.398,56.537 68.398,54.386 68.129,53.938 Z"/>
</svg>