<svg xmlns="http://www.w3.org/2000/svg" viewBox="0 0 294.43 45.34"><defs><style>.cls-1{fill:#5a340e;}</style></defs><title>logo-coisasdimaria</title><g id="Camada_2" data-name="Camada 2"><g id="Layer_1" data-name="Layer 1"><path class="cls-1" d="M149.88,25.08a1.78,1.78,0,1,0-1.77-1.78A1.78,1.78,0,0,0,149.88,25.08Z"/><path class="cls-1" d="M47,24.87a1.78,1.78,0,0,0,1.78-1.77,1.78,1.78,0,0,0-3.55,0A1.77,1.77,0,0,0,47,24.87Z"/><path class="cls-1" d="M11.67,1.69C2.25,6.31-.09,20.42,0,28c.08,6.47,1.94,11,5.68,13.9a13,13,0,0,0,7.46,2.36,8.24,8.24,0,0,0,4.57-1.2,11.28,11.28,0,0,0,4.21-7.73A3.66,3.66,0,0,0,20.4,32.1a6.1,6.1,0,0,0-3.37-1c-1.9,0-3.13,1-3.21,2.72a.88.88,0,0,0,.26.69,1.06,1.06,0,0,0,.75.3,1.56,1.56,0,0,0,1.38-.94,1.13,1.13,0,0,1,1.1-.71A1.87,1.87,0,0,1,19,34.44,7.09,7.09,0,0,1,19,37.23a5.65,5.65,0,0,1-3.82,4.94,6.38,6.38,0,0,1-2,.3c-3.4,0-6.69-2.41-8.3-4.65-2.89-4-3.6-10.24-2.06-18.07,1.61-8.12,4.82-13.6,9.56-16.29,2.48-1.41,4.7-1.3,6.16.27a5.56,5.56,0,0,1,1.4,4c0,.08,0,.19,0,.3-.09,1.7-.32,6.23-6.62,11.48A1,1,0,0,0,14,21.27a1.31,1.31,0,0,0,.87-.35c2.81-2.4,6.62-6.3,7.32-12.32a8.32,8.32,0,0,0-1.77-6.31C18.49.13,15.35-.11,11.67,1.69Z"/><path class="cls-1" d="M259.58,25.08a1.78,1.78,0,1,0-1.78-1.78A1.78,1.78,0,0,0,259.58,25.08Z"/><path class="cls-1" d="M206.47,30.58a4.42,4.42,0,0,0-4,2.56,3.54,3.54,0,0,0,1.16,3.75l.05,0a.92.92,0,0,0,.64.29,1.63,1.63,0,0,0,1.44-1.16.83.83,0,0,0-.24-.72c-.6-.77-.85-1.21-.68-1.63a1.3,1.3,0,0,1,1.25-.75c1,0,1.8.84,2.17,2.25.61,2.27-.84,5-2.26,6.6a3.33,3.33,0,0,1-2.4,1.35c-2.72,0-4.87-5.13-5-5.35a21.75,21.75,0,0,1-1.17-5.3l-.1-.81A86.13,86.13,0,0,1,197,17.07l.05-1.55c0-1.33.21-2.75.37-4.11v-.14c.34-2.84.7-5.79.07-8.56-.32-1.49-1.91-3.11-3.72-2.62-2.47.67-3,3.84-3.28,5.36a40.61,40.61,0,0,0-.38,7.14c0,1.43,0,2.72-.05,4-.12,2.4-.3,4.91-.44,6.93-.21,3.08-.58,13.93-.57,15.23v.1c0,2.7-.19,3.16-.3,3.23s-.33-.35-.45-1.13l0-.21A97.86,97.86,0,0,1,187,27.63c-.06-1.24-.13-2.48-.21-3.7-.1-1.7-.21-3.4-.31-5.1l-.05-.76c-.1-1.73-.27-4.39-.42-6.82-.07-1.14-.14-2.53-.21-3.85-.1-2.14-.19-4-.28-4.54-.25-1.55-.86-2.37-1.84-2.45h-.25c-1.22,0-2.84.72-3.63,4.14a50.14,50.14,0,0,0-1.16,8.72l0,.4c-.08,1-.15,2-.24,2.94L178,21.3c-.33,3.41-.74,7.65-1.19,11.67a17.76,17.76,0,0,1-2.14,6.42c-1,1.71-2.81,3.54-5.21,3.54a4.59,4.59,0,0,1-1-.1A2,2,0,0,1,167,41.54a1.46,1.46,0,0,1-.12-.69,1.65,1.65,0,0,1,.38-.86.86.86,0,0,0,.3-1,1,1,0,0,0-1.15-.55,2.52,2.52,0,0,0-2,2.36,3.71,3.71,0,0,0,1,2.78,5.13,5.13,0,0,0,4.28,1.32c8.78-1,9.51-12.11,9.82-16.85.21-3.22.62-6.57,1-9.52l0-.32c.26-2.2.54-4.47.74-6.71.16-1.65.3-2.73.45-3.88.06-.44.11-.9.18-1.41A6.38,6.38,0,0,1,183,2.88a3.41,3.41,0,0,1,.15,1.23c0,.23,0,.47,0,.7s0,.21,0,.31l.29,5.06c.58,10.2,1.18,20.73,2.41,31.06.3,2.51,1.46,3.73,3.15,3.28,2.5-.67,2.39-4.14,2.32-6.46,0-.38,0-.73,0-1,.16-6.94.56-13.92.94-20.68.17-3,.34-6.1.49-9.15.07-1.35.7-4.73,1.59-4.87a.47.47,0,0,1,.44.17c.7.78.65,3.68.45,5.43,0,.32-.08.62-.11.92a162,162,0,0,0-.6,17.91c.06,4.17.23,16.87,8.33,18.12a4.68,4.68,0,0,0,.84.07c2.07,0,4-1.21,5.32-3.41,1.7-2.76,2.11-6.41,1-8.69A3.85,3.85,0,0,0,206.47,30.58Z"/><path class="cls-1" d="M293.6,37a2.65,2.65,0,0,0-2-.93,3.91,3.91,0,0,0-2.86,1.47,1.27,1.27,0,0,0-.27,1.36c.26.6,1,.68,1.6,0a1.25,1.25,0,0,1,1.9-.29c.47.42.2,2.15-.71,3.34a3.8,3.8,0,0,1-2.52,1.41c-1.48.19-2.46,0-3-.59-.75-.81-.63-2.31-.52-3.62,0-.38.07-.8.07-1.17,0,0,0-.26,0-.59V37c.07-2,.2-6.06.18-7.79a.94.94,0,0,0-1.06-.91,1.58,1.58,0,0,0-1.11.42.93.93,0,0,0-.26.64c0,.36,0,.77,0,1.19v.12a6.69,6.69,0,0,0-5-2.22c-4.67,0-8.51,2.87-9.35,7-.72,3.54-1.49,4.48-2.46,5.69a5.52,5.52,0,0,1-3.65,2,2.64,2.64,0,0,1-1.14-.27c-.69-.34-.76-1.49-.81-2.26-.13-2.3-.09-4.68,0-7v-.13c0-1.14.05-2.29.06-3.43a1,1,0,0,0-.61-.89,1.49,1.49,0,0,0-1.47.3,3.47,3.47,0,0,0-.45.72c-.37.85-.71,1.69-1,2.51l0,.06a43.54,43.54,0,0,1-2.33,5.08A17.51,17.51,0,0,1,251.86,42a3.66,3.66,0,0,1-2.51,1.14h0a2,2,0,0,1-1.64-.65c-.69-.93-.2-2.7.12-3.87.08-.3.16-.57.2-.79.47-2.36,1-4.8-.17-6.19-.69-.84-1.91-1.15-3.61-.92l-1.06.16-.07,0a14.89,14.89,0,0,1-2.65.27c.1-.56.19-1.11.26-1.63a3.11,3.11,0,0,0-.64-2.55,2.53,2.53,0,0,0-1.92-.82,3.62,3.62,0,0,0-2.46,1.05,2.35,2.35,0,0,0-.84,2.28c.29,1.32,1.79,2.33,3.07,2.83-.58,2.91-3.32,10.19-7.79,10.38-.56,0-.89-.42-1-1.24-.15-1.32-.24-10.2-.26-12.5,0-.13-.05-.55-.73-.55-.44,0-1.69.17-1.69.94,0,.5,0,1,0,1.48a7.94,7.94,0,0,0-5.8-2.29,8.35,8.35,0,1,0,6.09,13.86,2.63,2.63,0,0,0,1.91,2.21,7.81,7.81,0,0,0,1.61.17c3.77,0,7-5.27,7.64-6.32a20.46,20.46,0,0,0,2.23-5.73h.13l1.29-.21a14.5,14.5,0,0,1,3.33-.31,1.38,1.38,0,0,1,1.16.55c.64,1.1.31,2.63-.08,4.39s-.84,3.82-.24,5.73a3,3,0,0,0,2.86,1.89A5.23,5.23,0,0,0,253,43.18,33.32,33.32,0,0,0,258.19,36c0,1.56,0,2.89,0,4.13,0,1.86.24,3.72,2.29,4.7a4.61,4.61,0,0,0,2.05.49c3.14,0,5.61-3.33,6.75-5.18a8.46,8.46,0,0,0,14.06,2.31,4.44,4.44,0,0,0,2.63,2.53,6.6,6.6,0,0,0,2.24.39,7.55,7.55,0,0,0,1.38-.13,5.74,5.74,0,0,0,4.82-4.9A4.15,4.15,0,0,0,293.6,37ZM277,30.74a6,6,0,0,1,5.89,4.93,5,5,0,0,1,.06,1.74,6.73,6.73,0,0,1-6.27,5.73c-3.5,0-5.95-3.43-5.95-6.49A6.19,6.19,0,0,1,277,30.74ZM238.2,28.39v.25c.15,0,.16.05.17.1a5.24,5.24,0,0,1-.09,1.65c-.4-.38-.82-.95-.65-1.45a.66.66,0,0,1,.54-.3l0-.25ZM220.68,43.14a6.55,6.55,0,0,1-6.21-6.39c0-3.61,2.16-6.13,5.24-6.13,3.47,0,6.74,3,6.75,6.13C226.45,40.21,223.81,43.14,220.68,43.14Z"/><path class="cls-1" d="M107.16,30.62c-.16,0-.76-.22-1.22-.39l-.23-.1c.18-.56.36-1.1.51-1.63a3.06,3.06,0,0,0-.26-2.61,2.46,2.46,0,0,0-1.76-1.1,3.67,3.67,0,0,0-2.6.67,2.35,2.35,0,0,0-1.17,2.13c.1,1.35,1.43,2.57,2.61,3.26,0,.1-.08.21-.12.32-.26.6-.53,1.17-.76,1.65l0,.1-.24.52C100.7,35.88,96,43.26,94,43.29c-.41,0-.77-.3-1.1-.94A11.73,11.73,0,0,1,92,37.69c0-.3,0-.61-.06-.9-.09-2.31-.13-4.82-.12-7.91A.88.88,0,0,0,91,28c-.67-.11-1.6.39-1.6,1.09,0,.44,0,.9,0,1.42a7.27,7.27,0,0,0-5.25-1.95c-4.41,0-8.22,3-8.85,7,0,.12,0,.32-.06.56-.31,4.17-4.08,6.53-6.73,7a6.27,6.27,0,0,0,2.07-2.88,7.22,7.22,0,0,0-1.17-6.23c-1.41-2.2-3.7-2.94-5.92-3.66l-.46-.15a10,10,0,0,1-1.59-.7c.13-.4.25-.79.35-1.15a3.09,3.09,0,0,0-.25-2.61,2.52,2.52,0,0,0-1.77-1.11,3.61,3.61,0,0,0-2.59.68,2.33,2.33,0,0,0-1.18,2.13c.1,1.33,1.41,2.55,2.59,3.24-.23.54-.48,1.07-.72,1.56l-.3.63c-1.17,2.44-5.82,9.82-7.87,9.85-.26,0-.67-.1-1.1-.94-1.22-2.39-.86-5.71-.54-8.64l.09-.84c.11-1.1.21-2.09.25-3a.68.68,0,0,0-.18-.53,1,1,0,0,0-.73-.27c-.61,0-1.46.33-1.49.95A12,12,0,0,1,43.86,36a3.67,3.67,0,0,1-3.08,1.75,4,4,0,0,1-.83-.09,7.46,7.46,0,0,0,.06-.88c0-4.79-3.29-8.26-7.82-8.26-4.94,0-9.11,3.78-9.11,8.26a8.46,8.46,0,0,0,16.4,2.92,2.62,2.62,0,0,0,.61,0A7.2,7.2,0,0,0,45.61,37c0,3.6.59,5.81,1.74,6.92a2.45,2.45,0,0,0,1.75.68,5.69,5.69,0,0,0,3-1.1c3.78-2.63,7.57-9.34,8.63-11.9.66.25,1.35.45,1.92.61l.24.07a5.36,5.36,0,0,1,.57.17,7.37,7.37,0,0,1,4.7,4.2,4.13,4.13,0,0,1,.08,4.15,5.2,5.2,0,0,1-4.43,2.18A4.66,4.66,0,0,1,59,40a.57.57,0,0,0-.54-.3,1.79,1.79,0,0,0-1.37.84,1,1,0,0,0,0,1,7.33,7.33,0,0,0,5.64,3.7,15.76,15.76,0,0,0,2.07.13c4.83,0,9.51-2.2,11.22-5.2a8.53,8.53,0,0,0,7.76,5.07A8.36,8.36,0,0,0,90.35,42a5,5,0,0,0,1.25,2.38,2.39,2.39,0,0,0,1.74.69,5.58,5.58,0,0,0,3-1.11c3.75-2.6,7.51-9.21,8.6-11.82l1.07.31c1,.3,2.31.67,2.73.83,3,1.14,2.88,4.61,2.79,5.65a4.27,4.27,0,0,1-4.27,4H107l-.14,0a2.66,2.66,0,0,1-1.92-.76,2.34,2.34,0,0,1-.52-1.73.71.71,0,0,1,.28-.5,1.23,1.23,0,0,1,1.67.19.93.93,0,0,0,1.43,0,.83.83,0,0,0-.11-1.09,3.29,3.29,0,0,0-2.41-1.06,3,3,0,0,0-1.9.65A2.91,2.91,0,0,0,102.31,41c.2,2,1.57,3.29,3.85,3.63a4.14,4.14,0,0,0,.66.06h.08a2.68,2.68,0,0,0,.39,0h.11a6.81,6.81,0,0,0,3.09-1,7.63,7.63,0,0,0,3.5-5,6.46,6.46,0,0,0-2.15-6C110.67,31.53,108.81,31.05,107.16,30.62ZM104,27.39a5.11,5.11,0,0,1-.34,1.62c-.31-.42-.67-1.05-.42-1.53a.64.64,0,0,1,.5-.22h.08C104,27.28,104,27.34,104,27.39ZM84.06,43.12a7.06,7.06,0,0,1-6.65-6.54,6.1,6.1,0,0,1,6.32-5.83,6,6,0,0,1,6,6C89.72,40.26,87.18,43.12,84.06,43.12ZM59.62,27.29a5.25,5.25,0,0,1-.33,1.61c-.34-.43-.67-1-.42-1.52a.64.64,0,0,1,.5-.22h.07C59.62,27.18,59.62,27.24,59.62,27.29ZM36,33.64a.45.45,0,0,1,.36-.23.42.42,0,0,1,.34.23,4.9,4.9,0,0,1,.87,2.8A4.81,4.81,0,0,1,36,34.64,1,1,0,0,1,36,33.64Zm-4.86-3.13A7.21,7.21,0,0,1,35,31.84a2.17,2.17,0,0,0-1,.93,3.12,3.12,0,0,0-.11,2.69,7.59,7.59,0,0,0,3.27,3.38,6.59,6.59,0,0,1-5.72,4.39,6.4,6.4,0,0,1-6.11-6.29C25.34,33.45,28,30.51,31.11,30.51Z"/><path class="cls-1" d="M159.74,35.58a1.16,1.16,0,0,0-1.53.91l-.15.59A14.81,14.81,0,0,1,157,40.26a4.53,4.53,0,0,1-3.85,2.88h-.27c-1-.09-1.63-.82-1.89-2.07a20.53,20.53,0,0,1-.07-5.45c0-.52.07-1,.1-1.54.06-1.06.11-2.07.11-3V31a1.62,1.62,0,0,0-.4-1.47,1.16,1.16,0,0,0-.69-.22,1.26,1.26,0,0,0-1.18.79c-.37.95-.71,1.88-1,2.79l0,.08c-.5,1.39-1,2.83-1.68,4.32a14.5,14.5,0,0,1-3.72,5.38,3.25,3.25,0,0,1-2.06.79h-.09a1.24,1.24,0,0,1-1-.4c-.53-.54-1.14-2-1.07-5.59.07-4,.14-8.77.1-13.76,0-1.5,0-2.94.07-4.33,0-1.22.06-2.49.06-3.79a1.17,1.17,0,0,0-1-1,1.18,1.18,0,0,0-1.27,1.11V31.09a7.27,7.27,0,0,0-5.81-2.46c-4.94,0-9,3.64-9,8.12a8.46,8.46,0,0,0,14.79,5.62,4.33,4.33,0,0,0,4.15,2.92c4,0,6.49-4.15,8.34-8.56,0,.88.08,1.61.16,2.53l0,.58c.23,3,1.7,4.86,4,5h.34c5.07,0,7.13-7.15,7.35-8A1,1,0,0,0,159.74,35.58Zm-30.43-4.77a7.24,7.24,0,0,1,5,2.19A5.46,5.46,0,0,1,136,36.88c-.07,4-2.17,6.12-6.25,6.13a6.23,6.23,0,0,1-6-6.26C123.83,33.32,126.14,30.82,129.31,30.81Z"/></g></g></svg>